<svg width="372" height="132" viewBox="0 0 372 132" fill="none" xmlns="http://www.w3.org/2000/svg">
<g opacity="0.5">
<mask id="path-1-outside-1_230_273" maskUnits="userSpaceOnUse" x="-1" y="-1" width="374" height="134" fill="black">
<rect fill="white" x="-1" y="-1" width="374" height="134"/>
<path d="M0.213516 104.88V81.66L56.7335 2.99999H93.6335L38.7335 81.66L21.8135 76.62H120.274V104.88H0.213516ZM66.8135 129V104.88L67.8935 76.62V55.2H101.554V129H66.8135ZM184.129 131.52C173.329 131.52 163.729 128.94 155.329 123.78C147.049 118.62 140.509 111.18 135.709 101.46C130.909 91.74 128.509 79.92 128.509 66C128.509 52.08 130.909 40.26 135.709 30.54C140.509 20.82 147.049 13.38 155.329 8.22C163.729 3.05999 173.329 0.479992 184.129 0.479992C194.809 0.479992 204.289 3.05999 212.569 8.22C220.969 13.38 227.569 20.82 232.369 30.54C237.169 40.26 239.569 52.08 239.569 66C239.569 79.92 237.169 91.74 232.369 101.46C227.569 111.18 220.969 118.62 212.569 123.78C204.289 128.94 194.809 131.52 184.129 131.52ZM184.129 102.36C187.969 102.36 191.329 101.16 194.209 98.76C197.209 96.36 199.549 92.52 201.229 87.24C202.909 81.84 203.749 74.76 203.749 66C203.749 57.12 202.909 50.04 201.229 44.76C199.549 39.48 197.209 35.64 194.209 33.24C191.329 30.84 187.969 29.64 184.129 29.64C180.289 29.64 176.869 30.84 173.869 33.24C170.989 35.64 168.649 39.48 166.849 44.76C165.169 50.04 164.329 57.12 164.329 66C164.329 74.76 165.169 81.84 166.849 87.24C168.649 92.52 170.989 96.36 173.869 98.76C176.869 101.16 180.289 102.36 184.129 102.36ZM251.471 104.88V81.66L307.991 2.99999H344.891L289.991 81.66L273.071 76.62H371.531V104.88H251.471ZM318.071 129V104.88L319.151 76.62V55.2H352.811V129H318.071Z"/>
</mask>
<path d="M0.213516 104.88H-0.786484V105.88H0.213516V104.88ZM0.213516 81.66L-0.598582 81.0765L-0.786484 81.338V81.66H0.213516ZM56.7335 2.99999V1.99999H56.2207L55.9214 2.41647L56.7335 2.99999ZM93.6335 2.99999L94.4535 3.57232L95.5509 1.99999H93.6335V2.99999ZM38.7335 81.66L38.448 82.6184L39.1402 82.8246L39.5535 82.2323L38.7335 81.66ZM21.8135 76.62V75.62L21.528 77.5784L21.8135 76.62ZM120.274 76.62H121.274V75.62H120.274V76.62ZM120.274 104.88V105.88H121.274V104.88H120.274ZM66.8135 129H65.8135V130H66.8135V129ZM66.8135 104.88L65.8142 104.842L65.8135 104.861V104.88H66.8135ZM67.8935 76.62L68.8928 76.6582L68.8935 76.6391V76.62H67.8935ZM67.8935 55.2V54.2H66.8935V55.2H67.8935ZM101.554 55.2H102.554V54.2H101.554V55.2ZM101.554 129V130H102.554V129H101.554ZM1.21352 104.88V81.66H-0.786484V104.88H1.21352ZM1.02561 82.2435L57.5456 3.58351L55.9214 2.41647L-0.598582 81.0765L1.02561 82.2435ZM56.7335 3.99999H93.6335V1.99999H56.7335V3.99999ZM92.8135 2.42766L37.9135 81.0877L39.5535 82.2323L94.4535 3.57232L92.8135 2.42766ZM39.019 80.7016L22.099 75.6616L21.528 77.5784L38.448 82.6184L39.019 80.7016ZM21.8135 77.62H120.274V75.62H21.8135V77.62ZM119.274 76.62V104.88H121.274V76.62H119.274ZM120.274 103.88H0.213516V105.88H120.274V103.88ZM67.8135 129V104.88H65.8135V129H67.8135ZM67.8128 104.918L68.8928 76.6582L66.8942 76.5818L65.8142 104.842L67.8128 104.918ZM68.8935 76.62V55.2H66.8935V76.62H68.8935ZM67.8935 56.2H101.554V54.2H67.8935V56.2ZM100.554 55.2V129H102.554V55.2H100.554ZM101.554 128H66.8135V130H101.554V128ZM155.329 123.78L154.8 124.629L154.805 124.632L155.329 123.78ZM135.709 101.46L134.812 101.903L134.812 101.903L135.709 101.46ZM135.709 30.54L134.812 30.0972L134.812 30.0972L135.709 30.54ZM155.329 8.22L154.805 7.36791L154.8 7.37131L155.329 8.22ZM212.569 8.22L212.04 9.06871L212.045 9.07208L212.569 8.22ZM232.369 30.54L231.472 30.9828L231.472 30.9828L232.369 30.54ZM232.369 101.46L231.472 101.017L231.472 101.017L232.369 101.46ZM212.569 123.78L212.045 122.928L212.04 122.931L212.569 123.78ZM194.209 98.76L193.584 97.9791L193.576 97.9854L193.568 97.9918L194.209 98.76ZM201.229 87.24L202.182 87.5432L202.184 87.5371L201.229 87.24ZM194.209 33.24L193.568 34.0082L193.576 34.0146L193.584 34.0209L194.209 33.24ZM173.869 33.24L173.244 32.4591L173.236 32.4654L173.228 32.4718L173.869 33.24ZM166.849 44.76L165.902 44.4373L165.899 44.447L165.896 44.4568L166.849 44.76ZM166.849 87.24L165.894 87.5371L165.898 87.5499L165.902 87.5627L166.849 87.24ZM173.869 98.76L173.228 99.5282L173.236 99.5346L173.244 99.5409L173.869 98.76ZM184.129 130.52C173.495 130.52 164.08 127.982 155.852 122.928L154.805 124.632C163.378 129.898 173.162 132.52 184.129 132.52V130.52ZM155.858 122.931C147.753 117.88 141.332 110.589 136.605 101.017L134.812 101.903C139.685 111.771 146.345 119.36 154.8 124.629L155.858 122.931ZM136.605 101.017C131.89 91.4683 129.509 79.8086 129.509 66H127.509C127.509 80.0314 129.928 92.0117 134.812 101.903L136.605 101.017ZM129.509 66C129.509 52.1914 131.89 40.5317 136.605 30.9828L134.812 30.0972C129.928 39.9883 127.509 51.9686 127.509 66H129.509ZM136.605 30.9828C141.332 21.4105 147.753 14.1195 155.858 9.06869L154.8 7.37131C146.345 12.6405 139.685 20.2294 134.812 30.0972L136.605 30.9828ZM155.852 9.07208C164.08 4.01792 173.495 1.47999 184.129 1.47999V-0.520008C173.162 -0.520008 163.378 2.10207 154.805 7.36792L155.852 9.07208ZM184.129 1.47999C194.64 1.47999 203.933 4.01684 212.04 9.06869L213.098 7.37131C204.644 2.10314 194.977 -0.520008 184.129 -0.520008V1.47999ZM212.045 9.07208C220.269 14.1238 226.747 21.4142 231.472 30.9828L233.265 30.0972C228.391 20.2258 221.668 12.6362 213.092 7.36792L212.045 9.07208ZM231.472 30.9828C236.188 40.5317 238.569 52.1914 238.569 66H240.569C240.569 51.9686 238.15 39.9883 233.265 30.0972L231.472 30.9828ZM238.569 66C238.569 79.8086 236.188 91.4683 231.472 101.017L233.265 101.903C238.15 92.0117 240.569 80.0314 240.569 66H238.569ZM231.472 101.017C226.747 110.586 220.269 117.876 212.045 122.928L213.092 124.632C221.668 119.364 228.391 111.774 233.265 101.903L231.472 101.017ZM212.04 122.931C203.933 127.983 194.64 130.52 184.129 130.52V132.52C194.977 132.52 204.644 129.897 213.098 124.629L212.04 122.931ZM184.129 103.36C188.196 103.36 191.784 102.082 194.849 99.5282L193.568 97.9918C190.873 100.238 187.741 101.36 184.129 101.36V103.36ZM194.833 99.5409C198.042 96.9742 200.467 92.9321 202.182 87.5432L200.276 86.9368C198.63 92.1079 196.376 95.7458 193.584 97.9791L194.833 99.5409ZM202.184 87.5371C203.905 82.0033 204.749 74.8119 204.749 66H202.749C202.749 74.7081 201.912 81.6767 200.274 86.9429L202.184 87.5371ZM204.749 66C204.749 57.0712 203.906 49.8757 202.182 44.4568L200.276 45.0632C201.912 50.2043 202.749 57.1688 202.749 66H204.749ZM202.182 44.4568C200.467 39.0679 198.042 35.0258 194.833 32.4591L193.584 34.0209C196.376 36.2542 198.63 39.8921 200.276 45.0632L202.182 44.4568ZM194.849 32.4718C191.784 29.9181 188.196 28.64 184.129 28.64V30.64C187.741 30.64 190.873 31.7619 193.568 34.0082L194.849 32.4718ZM184.129 28.64C180.061 28.64 176.421 29.9174 173.244 32.4591L174.493 34.0209C177.316 31.7626 180.516 30.64 184.129 30.64V28.64ZM173.228 32.4718C170.155 35.0333 167.734 39.0626 165.902 44.4373L167.795 45.0827C169.563 39.8973 171.823 36.2467 174.509 34.0082L173.228 32.4718ZM165.896 44.4568C164.172 49.8757 163.329 57.0712 163.329 66H165.329C165.329 57.1688 166.166 50.2043 167.802 45.0632L165.896 44.4568ZM163.329 66C163.329 74.8119 164.172 82.0033 165.894 87.5371L167.804 86.9429C166.165 81.6767 165.329 74.7081 165.329 66H163.329ZM165.902 87.5627C167.734 92.9373 170.155 96.9667 173.228 99.5282L174.509 97.9918C171.823 95.7533 169.563 92.1026 167.795 86.9173L165.902 87.5627ZM173.244 99.5409C176.421 102.083 180.061 103.36 184.129 103.36V101.36C180.516 101.36 177.316 100.237 174.493 97.9791L173.244 99.5409ZM251.471 104.88H250.471V105.88H251.471V104.88ZM251.471 81.66L250.659 81.0765L250.471 81.338V81.66H251.471ZM307.991 2.99999V1.99999H307.478L307.179 2.41647L307.991 2.99999ZM344.891 2.99999L345.711 3.57232L346.809 1.99999H344.891V2.99999ZM289.991 81.66L289.706 82.6184L290.398 82.8246L290.811 82.2323L289.991 81.66ZM273.071 76.62V75.62L272.786 77.5784L273.071 76.62ZM371.531 76.62H372.531V75.62H371.531V76.62ZM371.531 104.88V105.88H372.531V104.88H371.531ZM318.071 129H317.071V130H318.071V129ZM318.071 104.88L317.072 104.842L317.071 104.861V104.88H318.071ZM319.151 76.62L320.151 76.6582L320.151 76.6391V76.62H319.151ZM319.151 55.2V54.2H318.151V55.2H319.151ZM352.811 55.2H353.811V54.2H352.811V55.2ZM352.811 129V130H353.811V129H352.811ZM252.471 104.88V81.66H250.471V104.88H252.471ZM252.283 82.2435L308.803 3.58351L307.179 2.41647L250.659 81.0765L252.283 82.2435ZM307.991 3.99999H344.891V1.99999H307.991V3.99999ZM344.071 2.42766L289.171 81.0877L290.811 82.2323L345.711 3.57232L344.071 2.42766ZM290.277 80.7016L273.357 75.6616L272.786 77.5784L289.706 82.6184L290.277 80.7016ZM273.071 77.62H371.531V75.62H273.071V77.62ZM370.531 76.62V104.88H372.531V76.62H370.531ZM371.531 103.88H251.471V105.88H371.531V103.88ZM319.071 129V104.88H317.071V129H319.071ZM319.071 104.918L320.151 76.6582L318.152 76.5818L317.072 104.842L319.071 104.918ZM320.151 76.62V55.2H318.151V76.62H320.151ZM319.151 56.2H352.811V54.2H319.151V56.2ZM351.811 55.2V129H353.811V55.2H351.811ZM352.811 128H318.071V130H352.811V128Z" fill="black" mask="url(#path-1-outside-1_230_273)"/>
</g>
</svg>
