<svg width="24" height="24" viewBox="0 0 24 24" fill="none" xmlns="http://www.w3.org/2000/svg">
<path fill-rule="evenodd" clip-rule="evenodd" d="M10.9873 2.74599C11.184 2.74568 11.3956 2.74577 11.6239 2.74588L12.0003 2.74599C15.0153 2.74599 15.3726 2.75681 16.5632 2.81091C17.6642 2.86127 18.2617 3.04523 18.6598 3.19978C19.1867 3.40445 19.5624 3.64911 19.9574 4.04434C20.3526 4.43956 20.5973 4.81596 20.8024 5.34293C20.957 5.74051 21.1412 6.33804 21.1913 7.43903C21.2454 8.62939 21.2572 8.98697 21.2572 12.0005C21.2572 15.0141 21.2454 15.3717 21.1913 16.562C21.141 17.663 20.957 18.2606 20.8024 18.6581C20.5978 19.1851 20.3526 19.5603 19.9574 19.9553C19.5622 20.3505 19.187 20.5952 18.6598 20.7999C18.2622 20.9551 17.6642 21.1386 16.5632 21.189C15.3729 21.2431 15.0153 21.2548 12.0003 21.2548C8.98508 21.2548 8.62773 21.2431 7.43736 21.189C6.33639 21.1382 5.73885 20.9542 5.34057 20.7996C4.81361 20.595 4.43721 20.3503 4.04199 19.9551C3.64676 19.5598 3.4021 19.1844 3.19696 18.6572C3.0424 18.2596 2.8582 17.6621 2.80809 16.5611C2.75399 15.3707 2.74316 15.0132 2.74316 11.9977C2.74316 8.98227 2.75399 8.62656 2.80809 7.43619C2.85844 6.33521 3.0424 5.73767 3.19696 5.33963C3.40163 4.81267 3.64676 4.43626 4.04199 4.04105C4.43721 3.64583 4.81361 3.40117 5.34057 3.19603C5.73862 3.04076 6.33639 2.85725 7.43736 2.80669C8.47906 2.75963 8.88275 2.74551 10.9873 2.74316V2.74599ZM18.028 4.62059C17.2799 4.62059 16.673 5.22684 16.673 5.97516C16.673 6.72327 17.2799 7.3302 18.028 7.3302C18.7761 7.3302 19.3831 6.72327 19.3831 5.97516C19.3831 5.22705 18.7761 4.62012 18.028 4.62012V4.62059ZM6.20203 12.0026C6.20203 8.80017 8.79836 6.20374 12.0007 6.20361C15.2032 6.20361 17.799 8.80008 17.799 12.0026C17.799 15.205 15.2034 17.8003 12.001 17.8003C8.79849 17.8003 6.20203 15.205 6.20203 12.0026Z" fill="#CCCCCC"/>
<path d="M11.9994 8.23877C14.078 8.23877 15.7634 9.92387 15.7634 12.0028C15.7634 14.0815 14.078 15.7668 11.9994 15.7668C9.92046 15.7668 8.23535 14.0815 8.23535 12.0028C8.23535 9.92387 9.92046 8.23877 11.9994 8.23877Z" fill="#CCCCCC"/>
</svg>
