<svg width="24" height="24" viewBox="0 0 24 24" fill="none" xmlns="http://www.w3.org/2000/svg">
<path d="M12.9757 17.7834C12.9757 17.7834 13.3346 17.7448 13.5184 17.5539C13.6867 17.3789 13.6808 17.0488 13.6808 17.0488C13.6808 17.0488 13.6585 15.5071 14.3986 15.2795C15.1281 15.0556 16.0647 16.7704 17.0587 17.4297C17.8096 17.9282 18.3795 17.8191 18.3795 17.8191L21.0357 17.7834C21.0357 17.7834 22.4246 17.7006 21.7662 16.6443C21.7117 16.5578 21.382 15.8627 19.7918 14.4348C18.1257 12.9402 18.3494 13.182 20.3549 10.5962C21.5765 9.02167 22.0647 8.06037 21.9121 7.64933C21.7671 7.25616 20.8684 7.36057 20.8684 7.36057L17.8786 7.37844C17.8786 7.37844 17.6569 7.34928 17.4925 7.44428C17.332 7.5374 17.228 7.75468 17.228 7.75468C17.228 7.75468 16.7553 8.97276 16.124 10.0093C14.7925 12.1953 14.2605 12.311 14.0427 12.1755C13.5359 11.8585 13.6624 10.9038 13.6624 10.2256C13.6624 8.10646 13.995 7.22324 13.0156 6.99467C12.6907 6.91848 12.4515 6.86863 11.6199 6.86016C10.5529 6.84982 9.65034 6.86393 9.13875 7.10566C8.79834 7.2665 8.53573 7.62581 8.69621 7.64651C8.89365 7.6719 9.34105 7.76314 9.57837 8.07542C9.88474 8.47894 9.87404 9.3838 9.87404 9.3838C9.87404 9.3838 10.0501 11.8783 9.46263 12.1877C9.05997 12.4003 8.50752 11.9667 7.31997 9.98296C6.71208 8.96711 6.25301 7.84403 6.25301 7.84403C6.25301 7.84403 6.16451 7.63428 6.00597 7.52141C5.81436 7.38502 5.5469 7.34269 5.5469 7.34269L2.7059 7.36057C2.7059 7.36057 2.27892 7.37185 2.12233 7.55151C1.98325 7.71047 2.11163 8.04062 2.11163 8.04062C2.11163 8.04062 4.336 13.0738 6.85506 15.6106C9.16501 17.9358 11.7872 17.7834 11.7872 17.7834H12.9757Z" fill="#CCCCCC"/>
</svg>
