<svg width="20" height="20" viewBox="0 0 20 20" fill="none" xmlns="http://www.w3.org/2000/svg">
<path fill-rule="evenodd" clip-rule="evenodd" d="M0.756477 19.3894L4.54126 18.3966L4.90641 18.6133C6.44176 19.5244 8.20172 20.0065 9.99613 20.0072H10.0002C15.5119 20.0072 19.9978 15.5212 20 10.0072C20.001 7.3352 18.9619 4.8228 17.0739 2.9326C15.1859 1.04239 12.6751 0.000926075 10.0041 0C4.48819 0 0.00219037 4.4856 8.48425e-07 9.99912C-0.000773056 11.8887 0.527914 13.7288 1.52893 15.3209L1.76669 15.6993L0.756477 19.3894ZM15.6502 12.5977C15.8599 12.699 16.0015 12.7674 16.0619 12.8683C16.1371 12.9937 16.1371 13.5956 15.8867 14.2979C15.6361 15.0001 14.4351 15.641 13.8574 15.7273C13.3395 15.8047 12.6841 15.837 11.964 15.6082C11.5274 15.4696 10.9674 15.2847 10.2502 14.9749C7.43194 13.758 5.52737 11.0265 5.16741 10.5102C5.1422 10.4741 5.12456 10.4488 5.11472 10.4356L5.1123 10.4324C4.95321 10.2201 3.88721 8.79784 3.88721 7.32582C3.88721 5.94109 4.56742 5.21527 4.88052 4.88118C4.90197 4.85829 4.92169 4.83724 4.93936 4.81794C5.21491 4.51697 5.54062 4.44173 5.74102 4.44173C5.9414 4.44173 6.14203 4.44358 6.31719 4.45238C6.3388 4.45346 6.36128 4.45333 6.38452 4.4532C6.55971 4.45217 6.77811 4.45089 6.99357 4.96843C7.07646 5.16759 7.19774 5.46286 7.32566 5.77428C7.58434 6.40406 7.87015 7.09988 7.92044 7.20058C7.99561 7.35106 8.0457 7.52655 7.9455 7.72727C7.93046 7.75736 7.91654 7.78577 7.90325 7.8129C7.82799 7.96656 7.77263 8.07959 7.64489 8.22873C7.59466 8.28738 7.54274 8.3506 7.49083 8.41382C7.38741 8.53978 7.284 8.66572 7.19394 8.75543C7.04345 8.90533 6.88678 9.06797 7.06214 9.36894C7.2375 9.66991 7.84083 10.6543 8.73452 11.4515C9.6952 12.3084 10.5302 12.6705 10.9534 12.8541C11.036 12.89 11.103 12.919 11.1521 12.9436C11.4526 13.0941 11.628 13.0689 11.8033 12.8683C11.9787 12.6677 12.5548 11.9905 12.7552 11.6896C12.9556 11.3887 13.1561 11.4388 13.4316 11.5391C13.7072 11.6395 15.1852 12.3667 15.4858 12.5172C15.5445 12.5466 15.5994 12.5731 15.6502 12.5977Z" fill="black"/>
</svg>
